<?xml version="1.0" encoding="UTF-8"?>
<svg xmlns="http://www.w3.org/2000/svg" xmlns:xlink="http://www.w3.org/1999/xlink" width="56px" height="56px" viewBox="0 0 56 56" version="1.1">
<g id="surface1">
<path style=" stroke:none;fill-rule:nonzero;fill:rgb(0%,0%,0%);fill-opacity:1;" d="M 29.554688 56.050781 C 19.703125 56.050781 9.878906 56.050781 0.0546875 56.050781 C 0.0546875 37.386719 0.0546875 18.726562 0.0546875 0.0585938 C 18.714844 0.0585938 37.375 0.0585938 56.042969 0.0585938 C 56.042969 18.71875 56.042969 37.386719 56.042969 56.050781 C 47.226562 56.050781 38.402344 56.050781 29.554688 56.050781 M 21.753906 46.925781 C 21.78125 46.9375 21.8125 46.953125 21.84375 46.964844 C 23.457031 47.484375 25.109375 47.808594 26.796875 47.894531 C 27.914062 47.953125 29.046875 47.988281 30.164062 47.808594 C 30.984375 47.671875 31.804688 47.546875 32.621094 47.390625 C 33.976562 47.132812 35.273438 46.671875 36.5 46.058594 C 37.511719 45.550781 38.503906 44.988281 39.4375 44.351562 C 40.269531 43.785156 41.035156 43.105469 41.789062 42.429688 C 42.300781 41.96875 42.761719 41.441406 43.207031 40.910156 C 43.675781 40.351562 44.121094 39.769531 44.542969 39.171875 C 45.222656 38.210938 45.800781 37.183594 46.242188 36.09375 C 46.632812 35.125 46.980469 34.136719 47.277344 33.132812 C 47.480469 32.433594 47.59375 31.695312 47.695312 30.96875 C 47.800781 30.230469 47.890625 29.484375 47.898438 28.742188 C 47.914062 27.792969 47.867188 26.839844 47.800781 25.890625 C 47.753906 25.253906 47.683594 24.609375 47.53125 23.992188 C 47.300781 23.058594 47.011719 22.136719 46.714844 21.222656 C 46.222656 19.6875 45.46875 18.277344 44.554688 16.957031 C 43.980469 16.128906 43.367188 15.320312 42.6875 14.578125 C 41.992188 13.824219 41.226562 13.128906 40.433594 12.476562 C 39.640625 11.828125 38.773438 11.277344 37.878906 10.765625 C 36.839844 10.171875 35.765625 9.675781 34.640625 9.28125 C 33.640625 8.929688 32.625 8.636719 31.570312 8.5 C 30.808594 8.402344 30.050781 8.230469 29.289062 8.207031 C 28.167969 8.171875 27.039062 8.121094 25.921875 8.296875 C 25.15625 8.417969 24.390625 8.511719 23.632812 8.664062 C 22.210938 8.953125 20.835938 9.417969 19.542969 10.070312 C 18.550781 10.574219 17.570312 11.128906 16.652344 11.761719 C 15.816406 12.335938 15.042969 13.023438 14.285156 13.707031 C 13.785156 14.15625 13.335938 14.667969 12.902344 15.1875 C 12.433594 15.746094 11.984375 16.324219 11.566406 16.921875 C 10.886719 17.894531 10.328125 18.9375 9.847656 20.023438 C 9.421875 20.984375 9.0625 21.964844 8.820312 22.984375 C 8.648438 23.699219 8.519531 24.425781 8.402344 25.152344 C 8.308594 25.753906 8.21875 26.359375 8.203125 26.964844 C 8.179688 27.851562 8.21875 28.738281 8.25 29.621094 C 8.261719 30.027344 8.289062 30.4375 8.355469 30.839844 C 8.453125 31.433594 8.59375 32.019531 8.707031 32.609375 C 8.988281 34.03125 9.496094 35.375 10.117188 36.671875 C 10.589844 37.660156 11.121094 38.617188 11.78125 39.492188 C 12.316406 40.195312 12.855469 40.902344 13.445312 41.558594 C 14.164062 42.359375 14.96875 43.082031 15.820312 43.742188 C 16.765625 44.480469 17.761719 45.140625 18.832031 45.671875 C 19.769531 46.136719 20.75 46.511719 21.753906 46.925781 Z M 21.753906 46.925781 "/>
<path style=" stroke:none;fill-rule:nonzero;fill:rgb(96.862745%,95.294118%,90.980392%);fill-opacity:1;" d="M 21.730469 46.925781 C 20.75 46.511719 19.769531 46.136719 18.832031 45.671875 C 17.761719 45.140625 16.765625 44.480469 15.820312 43.742188 C 14.96875 43.082031 14.164062 42.359375 13.445312 41.558594 C 12.855469 40.902344 12.316406 40.195312 11.78125 39.492188 C 11.121094 38.617188 10.589844 37.660156 10.117188 36.671875 C 9.496094 35.375 8.988281 34.03125 8.707031 32.609375 C 8.59375 32.019531 8.453125 31.433594 8.355469 30.839844 C 8.289062 30.4375 8.261719 30.027344 8.25 29.621094 C 8.21875 28.738281 8.179688 27.851562 8.203125 26.964844 C 8.21875 26.359375 8.308594 25.753906 8.402344 25.152344 C 8.519531 24.425781 8.648438 23.699219 8.820312 22.984375 C 9.0625 21.964844 9.421875 20.984375 9.847656 20.023438 C 10.328125 18.9375 10.886719 17.894531 11.566406 16.921875 C 11.984375 16.324219 12.433594 15.746094 12.902344 15.1875 C 13.335938 14.667969 13.785156 14.15625 14.285156 13.707031 C 15.042969 13.023438 15.816406 12.335938 16.652344 11.761719 C 17.570312 11.128906 18.550781 10.574219 19.542969 10.070312 C 20.835938 9.417969 22.210938 8.953125 23.632812 8.664062 C 24.390625 8.511719 25.15625 8.417969 25.921875 8.296875 C 27.039062 8.121094 28.167969 8.171875 29.289062 8.207031 C 30.050781 8.230469 30.808594 8.402344 31.570312 8.5 C 32.625 8.636719 33.640625 8.929688 34.640625 9.28125 C 35.765625 9.675781 36.839844 10.171875 37.878906 10.765625 C 38.773438 11.277344 39.640625 11.828125 40.433594 12.476562 C 41.226562 13.128906 41.992188 13.824219 42.6875 14.578125 C 43.367188 15.320312 43.980469 16.128906 44.554688 16.957031 C 45.46875 18.277344 46.222656 19.6875 46.714844 21.222656 C 47.011719 22.136719 47.300781 23.058594 47.53125 23.992188 C 47.683594 24.609375 47.753906 25.253906 47.800781 25.890625 C 47.867188 26.839844 47.914062 27.792969 47.898438 28.742188 C 47.890625 29.484375 47.800781 30.230469 47.695312 30.96875 C 47.59375 31.695312 47.480469 32.433594 47.277344 33.132812 C 46.980469 34.136719 46.632812 35.125 46.242188 36.09375 C 45.800781 37.183594 45.222656 38.210938 44.542969 39.171875 C 44.121094 39.769531 43.675781 40.351562 43.207031 40.910156 C 42.761719 41.441406 42.300781 41.96875 41.789062 42.429688 C 41.035156 43.105469 40.269531 43.785156 39.4375 44.351562 C 38.503906 44.988281 37.511719 45.550781 36.5 46.058594 C 35.273438 46.671875 33.976562 47.132812 32.621094 47.390625 C 31.804688 47.546875 30.984375 47.671875 30.164062 47.808594 C 29.046875 47.988281 27.914062 47.953125 26.796875 47.894531 C 25.109375 47.808594 23.457031 47.484375 21.84375 46.964844 C 21.8125 46.953125 21.78125 46.9375 21.730469 46.925781 M 12.835938 16.175781 C 12.636719 16.445312 12.429688 16.707031 12.234375 16.980469 C 11.460938 18.046875 10.8125 19.183594 10.320312 20.402344 C 9.976562 21.265625 9.652344 22.140625 9.398438 23.035156 C 9.179688 23.8125 9.054688 24.621094 8.921875 25.421875 C 8.824219 26.035156 8.730469 26.664062 8.722656 27.285156 C 8.710938 28.132812 8.746094 28.984375 8.824219 29.824219 C 8.898438 30.636719 9.023438 31.445312 9.183594 32.242188 C 9.464844 33.617188 9.933594 34.9375 10.53125 36.203125 C 11.15625 37.527344 11.894531 38.792969 12.835938 39.921875 C 13.34375 40.535156 13.839844 41.167969 14.402344 41.726562 C 14.964844 42.289062 15.570312 42.816406 16.210938 43.289062 C 17.058594 43.910156 17.929688 44.507812 18.839844 45.03125 C 19.980469 45.6875 21.203125 46.1875 22.46875 46.558594 C 23.425781 46.835938 24.382812 47.105469 25.382812 47.1875 C 26.128906 47.25 26.871094 47.375 27.613281 47.378906 C 28.523438 47.382812 29.4375 47.304688 30.347656 47.230469 C 30.875 47.1875 31.410156 47.136719 31.921875 47.003906 C 32.949219 46.734375 33.972656 46.441406 34.976562 46.085938 C 36.148438 45.671875 37.25 45.09375 38.300781 44.425781 C 39.183594 43.863281 40.042969 43.273438 40.796875 42.546875 C 41.480469 41.894531 42.1875 41.257812 42.792969 40.535156 C 43.441406 39.753906 44.007812 38.898438 44.570312 38.046875 C 45.253906 37.003906 45.773438 35.871094 46.195312 34.703125 C 46.664062 33.40625 47.058594 32.085938 47.1875 30.703125 C 47.253906 29.984375 47.351562 29.269531 47.386719 28.550781 C 47.429688 27.621094 47.375 26.691406 47.238281 25.765625 C 47.160156 25.242188 47.144531 24.699219 47.007812 24.191406 C 46.738281 23.164062 46.464844 22.128906 46.078125 21.140625 C 45.699219 20.167969 45.222656 19.222656 44.710938 18.3125 C 44.285156 17.558594 43.769531 16.847656 43.242188 16.160156 C 42.765625 15.535156 42.25 14.929688 41.695312 14.375 C 41.132812 13.8125 40.507812 13.308594 39.890625 12.804688 C 39.0625 12.121094 38.164062 11.539062 37.210938 11.046875 C 36.507812 10.6875 35.792969 10.339844 35.058594 10.050781 C 34.308594 9.753906 33.542969 9.5 32.765625 9.292969 C 32.09375 9.117188 31.398438 9.023438 30.710938 8.921875 C 30.09375 8.832031 29.46875 8.730469 28.847656 8.722656 C 27.992188 8.710938 27.136719 8.773438 26.28125 8.816406 C 25.386719 8.859375 24.511719 9.019531 23.640625 9.226562 C 22.351562 9.535156 21.101562 9.960938 19.90625 10.53125 C 19.25 10.84375 18.613281 11.199219 17.992188 11.570312 C 16.894531 12.21875 15.882812 12.984375 14.953125 13.855469 C 14.535156 14.246094 14.128906 14.648438 13.742188 15.070312 C 13.429688 15.410156 13.152344 15.785156 12.835938 16.175781 Z M 12.835938 16.175781 "/>
<path style=" stroke:none;fill-rule:nonzero;fill:rgb(0%,0%,0%);fill-opacity:1;" d="M 12.847656 16.160156 C 13.152344 15.785156 13.429688 15.410156 13.742188 15.070312 C 14.128906 14.648438 14.535156 14.246094 14.953125 13.855469 C 15.882812 12.984375 16.894531 12.21875 17.992188 11.570312 C 18.613281 11.199219 19.25 10.84375 19.90625 10.53125 C 21.101562 9.960938 22.351562 9.535156 23.640625 9.226562 C 24.511719 9.019531 25.386719 8.859375 26.28125 8.816406 C 27.136719 8.773438 27.992188 8.710938 28.847656 8.722656 C 29.46875 8.730469 30.09375 8.832031 30.710938 8.921875 C 31.398438 9.023438 32.09375 9.117188 32.765625 9.292969 C 33.542969 9.5 34.308594 9.753906 35.058594 10.050781 C 35.792969 10.339844 36.507812 10.6875 37.210938 11.046875 C 38.164062 11.539062 39.0625 12.121094 39.890625 12.804688 C 40.507812 13.308594 41.132812 13.8125 41.695312 14.375 C 42.25 14.929688 42.765625 15.535156 43.242188 16.160156 C 43.769531 16.847656 44.285156 17.558594 44.710938 18.3125 C 45.222656 19.222656 45.699219 20.167969 46.078125 21.140625 C 46.464844 22.128906 46.738281 23.164062 47.007812 24.191406 C 47.144531 24.699219 47.160156 25.242188 47.238281 25.765625 C 47.375 26.691406 47.429688 27.621094 47.386719 28.550781 C 47.351562 29.269531 47.253906 29.984375 47.1875 30.703125 C 47.058594 32.085938 46.664062 33.40625 46.195312 34.703125 C 45.773438 35.871094 45.253906 37.003906 44.570312 38.046875 C 44.007812 38.898438 43.441406 39.753906 42.792969 40.535156 C 42.1875 41.257812 41.480469 41.894531 40.796875 42.546875 C 40.042969 43.273438 39.183594 43.863281 38.300781 44.425781 C 37.25 45.09375 36.148438 45.671875 34.976562 46.085938 C 33.972656 46.441406 32.949219 46.734375 31.921875 47.003906 C 31.410156 47.136719 30.875 47.1875 30.347656 47.230469 C 29.4375 47.304688 28.523438 47.382812 27.613281 47.378906 C 26.871094 47.375 26.128906 47.25 25.382812 47.1875 C 24.382812 47.105469 23.425781 46.835938 22.46875 46.558594 C 21.203125 46.1875 19.980469 45.6875 18.839844 45.03125 C 17.929688 44.507812 17.058594 43.910156 16.210938 43.289062 C 15.570312 42.816406 14.964844 42.289062 14.402344 41.726562 C 13.839844 41.167969 13.34375 40.535156 12.835938 39.921875 C 11.894531 38.792969 11.15625 37.527344 10.53125 36.203125 C 9.933594 34.9375 9.464844 33.617188 9.183594 32.242188 C 9.023438 31.445312 8.898438 30.636719 8.824219 29.824219 C 8.746094 28.984375 8.710938 28.132812 8.722656 27.285156 C 8.730469 26.664062 8.824219 26.035156 8.921875 25.421875 C 9.054688 24.621094 9.179688 23.8125 9.398438 23.035156 C 9.652344 22.140625 9.976562 21.265625 10.320312 20.402344 C 10.8125 19.183594 11.460938 18.046875 12.234375 16.980469 C 12.429688 16.707031 12.636719 16.445312 12.847656 16.160156 M 25.097656 17.710938 C 25.097656 18.09375 25.09375 18.472656 25.097656 18.851562 C 25.097656 18.910156 25.113281 18.988281 25.152344 19.027344 C 25.628906 19.488281 25.632812 19.9375 25.15625 20.375 C 25.125 20.40625 25.097656 20.457031 25.097656 20.496094 C 25.09375 21.140625 25.097656 21.785156 25.097656 22.453125 C 25.378906 22.453125 25.644531 22.453125 25.90625 22.453125 C 25.949219 23.609375 25.996094 24.746094 26.027344 25.882812 C 26.042969 26.4375 26.027344 26.988281 26.03125 27.542969 C 26.03125 27.605469 26.039062 27.671875 26.042969 27.722656 C 26.207031 27.722656 26.347656 27.722656 26.449219 27.722656 C 26.5 26.304688 26.554688 24.910156 26.597656 23.511719 C 26.609375 23.160156 26.601562 22.8125 26.601562 22.46875 C 27 22.46875 27.367188 22.46875 27.792969 22.46875 C 27.792969 23.214844 27.792969 23.941406 27.792969 24.671875 C 27.792969 25.605469 27.800781 26.539062 27.789062 27.472656 C 27.785156 27.695312 27.859375 27.769531 28.070312 27.742188 C 28.125 27.734375 28.183594 27.742188 28.214844 27.742188 C 28.265625 26.253906 28.316406 24.789062 28.363281 23.324219 C 28.371094 23.035156 28.363281 22.746094 28.363281 22.46875 C 28.765625 22.46875 29.132812 22.46875 29.472656 22.46875 C 29.519531 23.503906 29.570312 24.519531 29.605469 25.535156 C 29.621094 26.121094 29.605469 26.710938 29.605469 27.296875 C 29.605469 27.441406 29.605469 27.585938 29.605469 27.726562 C 29.777344 27.726562 29.917969 27.726562 30.113281 27.726562 C 30.113281 25.960938 30.113281 24.207031 30.113281 22.433594 C 30.460938 22.433594 30.757812 22.433594 31.058594 22.433594 C 31.058594 21.816406 31.0625 21.222656 31.054688 20.625 C 31.050781 20.546875 31 20.441406 30.9375 20.386719 C 30.445312 19.953125 30.457031 19.433594 30.972656 19.019531 C 31.027344 18.976562 31.054688 18.875 31.054688 18.800781 C 31.0625 18.378906 31.058594 17.953125 31.058594 17.53125 C 31.058594 17.257812 30.964844 17.164062 30.695312 17.164062 C 29.820312 17.164062 28.949219 17.164062 28.074219 17.164062 C 27.175781 17.164062 26.277344 17.164062 25.378906 17.160156 C 25.191406 17.160156 25.085938 17.226562 25.09375 17.429688 C 25.097656 17.507812 25.097656 17.585938 25.097656 17.710938 M 31.292969 30.539062 C 30.75 30.910156 30.226562 31.296875 29.800781 31.816406 C 29.046875 32.746094 28.5 33.761719 28.304688 34.953125 C 28.15625 35.859375 28.140625 36.746094 28.40625 37.640625 C 28.726562 38.710938 29.359375 39.53125 30.335938 40.039062 C 30.816406 40.285156 31.363281 40.476562 31.894531 40.527344 C 32.65625 40.59375 33.425781 40.578125 34.191406 40.359375 C 34.914062 40.148438 35.585938 39.859375 36.230469 39.488281 C 36.285156 39.457031 36.355469 39.347656 36.339844 39.3125 C 36.179688 38.96875 36 38.628906 35.828125 38.292969 C 35.039062 38.796875 34.273438 39.167969 33.382812 39.328125 C 32.667969 39.453125 32.003906 39.382812 31.367188 39.113281 C 30.367188 38.691406 29.890625 37.835938 29.695312 36.8125 C 29.636719 36.5 29.640625 36.167969 29.667969 35.847656 C 29.699219 35.425781 29.726562 34.992188 29.851562 34.59375 C 29.996094 34.121094 30.214844 33.667969 30.445312 33.230469 C 30.757812 32.644531 31.179688 32.140625 31.710938 31.730469 C 32.527344 31.097656 33.464844 30.785156 34.488281 30.8125 C 35.328125 30.832031 36.113281 31.09375 36.816406 31.566406 C 36.992188 31.679688 37.085938 31.625 37.175781 31.492188 C 37.328125 31.261719 37.472656 31.027344 37.621094 30.796875 C 37.765625 30.578125 37.75 30.511719 37.519531 30.382812 C 36.855469 30 36.125 29.753906 35.378906 29.679688 C 34.632812 29.605469 33.867188 29.605469 33.113281 29.792969 C 32.476562 29.949219 31.894531 30.207031 31.292969 30.539062 M 22.917969 33.785156 C 22.902344 33.859375 22.882812 33.929688 22.867188 34.003906 C 22.71875 34.765625 22.578125 35.53125 22.425781 36.292969 C 22.320312 36.828125 22.199219 37.355469 22.089844 37.886719 C 21.984375 38.386719 21.882812 38.882812 21.789062 39.382812 C 21.738281 39.648438 21.710938 39.917969 21.675781 40.183594 C 21.652344 40.339844 21.722656 40.398438 21.882812 40.394531 C 22.253906 40.386719 22.628906 40.394531 22.992188 40.394531 C 23.621094 37.21875 24.238281 34.113281 24.855469 31.007812 C 25.96875 31.007812 27.058594 31.003906 28.148438 31.007812 C 28.347656 31.011719 28.46875 30.96875 28.472656 30.726562 C 28.476562 30.546875 28.542969 30.367188 28.589844 30.191406 C 28.664062 29.917969 28.628906 29.867188 28.355469 29.867188 C 27.40625 29.867188 26.457031 29.867188 25.503906 29.867188 C 23.820312 29.867188 22.136719 29.867188 20.453125 29.863281 C 20.273438 29.863281 20.164062 29.871094 20.160156 30.105469 C 20.15625 30.324219 20.097656 30.550781 20.019531 30.761719 C 19.941406 30.964844 19.996094 31.011719 20.195312 31.011719 C 20.960938 31.003906 21.730469 31.007812 22.5 31.007812 C 22.808594 31.007812 23.117188 31.007812 23.464844 31.007812 C 23.382812 31.449219 23.3125 31.859375 23.226562 32.269531 C 23.128906 32.761719 23.023438 33.25 22.917969 33.785156 M 25.511719 16.046875 C 25.511719 16.382812 25.511719 16.714844 25.511719 17.046875 C 27.21875 17.046875 28.898438 17.046875 30.59375 17.046875 C 30.59375 16.109375 30.570312 15.183594 30.601562 14.265625 C 30.613281 13.925781 30.476562 13.71875 30.246094 13.523438 C 30.136719 13.433594 30.035156 13.328125 29.914062 13.25 C 29.824219 13.1875 29.710938 13.125 29.605469 13.125 C 28.777344 13.113281 27.945312 13.167969 27.117188 13.101562 C 26.480469 13.054688 26 13.230469 25.640625 13.742188 C 25.578125 13.832031 25.519531 13.949219 25.515625 14.054688 C 25.503906 14.699219 25.511719 15.347656 25.511719 16.046875 Z M 25.511719 16.046875 "/>
<path style=" stroke:none;fill-rule:nonzero;fill:rgb(100%,100%,100%);fill-opacity:1;" d="M 25.097656 17.6875 C 25.097656 17.585938 25.097656 17.507812 25.09375 17.429688 C 25.085938 17.226562 25.191406 17.160156 25.378906 17.160156 C 26.277344 17.164062 27.175781 17.164062 28.074219 17.164062 C 28.949219 17.164062 29.820312 17.164062 30.695312 17.164062 C 30.964844 17.164062 31.058594 17.257812 31.058594 17.53125 C 31.058594 17.953125 31.0625 18.378906 31.054688 18.800781 C 31.054688 18.875 31.027344 18.976562 30.972656 19.019531 C 30.457031 19.433594 30.445312 19.953125 30.9375 20.386719 C 31 20.441406 31.050781 20.546875 31.054688 20.625 C 31.0625 21.222656 31.058594 21.816406 31.058594 22.433594 C 30.757812 22.433594 30.460938 22.433594 30.113281 22.433594 C 30.113281 24.207031 30.113281 25.960938 30.113281 27.726562 C 29.917969 27.726562 29.777344 27.726562 29.605469 27.726562 C 29.605469 27.585938 29.605469 27.441406 29.605469 27.296875 C 29.605469 26.710938 29.621094 26.121094 29.605469 25.535156 C 29.570312 24.519531 29.519531 23.503906 29.472656 22.46875 C 29.132812 22.46875 28.765625 22.46875 28.363281 22.46875 C 28.363281 22.746094 28.371094 23.035156 28.363281 23.324219 C 28.316406 24.789062 28.265625 26.253906 28.214844 27.742188 C 28.183594 27.742188 28.125 27.734375 28.070312 27.742188 C 27.859375 27.769531 27.785156 27.695312 27.789062 27.472656 C 27.800781 26.539062 27.792969 25.605469 27.792969 24.671875 C 27.792969 23.941406 27.792969 23.214844 27.792969 22.46875 C 27.367188 22.46875 27 22.46875 26.601562 22.46875 C 26.601562 22.8125 26.609375 23.160156 26.597656 23.511719 C 26.554688 24.910156 26.5 26.304688 26.449219 27.722656 C 26.347656 27.722656 26.207031 27.722656 26.042969 27.722656 C 26.039062 27.671875 26.03125 27.605469 26.03125 27.542969 C 26.027344 26.988281 26.042969 26.4375 26.027344 25.882812 C 25.996094 24.746094 25.949219 23.609375 25.90625 22.453125 C 25.644531 22.453125 25.378906 22.453125 25.097656 22.453125 C 25.097656 21.785156 25.09375 21.140625 25.097656 20.496094 C 25.097656 20.457031 25.125 20.40625 25.15625 20.375 C 25.632812 19.9375 25.628906 19.488281 25.152344 19.027344 C 25.113281 18.988281 25.097656 18.910156 25.097656 18.851562 C 25.09375 18.472656 25.097656 18.09375 25.097656 17.6875 Z M 25.097656 17.6875 "/>
<path style=" stroke:none;fill-rule:nonzero;fill:rgb(96.862745%,95.294118%,90.980392%);fill-opacity:1;" d="M 31.308594 30.523438 C 31.894531 30.207031 32.476562 29.949219 33.113281 29.792969 C 33.867188 29.605469 34.632812 29.605469 35.378906 29.679688 C 36.125 29.753906 36.855469 30 37.519531 30.382812 C 37.75 30.511719 37.765625 30.578125 37.621094 30.796875 C 37.472656 31.027344 37.328125 31.261719 37.175781 31.492188 C 37.085938 31.625 36.992188 31.679688 36.816406 31.566406 C 36.113281 31.09375 35.328125 30.832031 34.488281 30.8125 C 33.464844 30.785156 32.527344 31.097656 31.710938 31.730469 C 31.179688 32.140625 30.757812 32.644531 30.445312 33.230469 C 30.214844 33.667969 29.996094 34.121094 29.851562 34.59375 C 29.726562 34.992188 29.699219 35.425781 29.667969 35.847656 C 29.640625 36.167969 29.636719 36.5 29.695312 36.8125 C 29.890625 37.835938 30.367188 38.691406 31.367188 39.113281 C 32.003906 39.382812 32.667969 39.453125 33.382812 39.328125 C 34.273438 39.167969 35.039062 38.796875 35.828125 38.292969 C 36 38.628906 36.179688 38.96875 36.339844 39.3125 C 36.355469 39.347656 36.285156 39.457031 36.230469 39.488281 C 35.585938 39.859375 34.914062 40.148438 34.191406 40.359375 C 33.425781 40.578125 32.65625 40.59375 31.894531 40.527344 C 31.363281 40.476562 30.816406 40.285156 30.335938 40.039062 C 29.359375 39.53125 28.726562 38.710938 28.40625 37.640625 C 28.140625 36.746094 28.15625 35.859375 28.304688 34.953125 C 28.5 33.761719 29.046875 32.746094 29.800781 31.816406 C 30.226562 31.296875 30.75 30.910156 31.308594 30.523438 Z M 31.308594 30.523438 "/>
<path style=" stroke:none;fill-rule:nonzero;fill:rgb(96.862745%,95.294118%,90.980392%);fill-opacity:1;" d="M 22.917969 33.761719 C 23.023438 33.25 23.128906 32.761719 23.226562 32.269531 C 23.3125 31.859375 23.382812 31.449219 23.464844 31.007812 C 23.117188 31.007812 22.808594 31.007812 22.5 31.007812 C 21.730469 31.007812 20.960938 31.003906 20.195312 31.011719 C 19.996094 31.011719 19.941406 30.964844 20.019531 30.761719 C 20.097656 30.550781 20.15625 30.324219 20.160156 30.105469 C 20.164062 29.871094 20.273438 29.863281 20.453125 29.863281 C 22.136719 29.867188 23.820312 29.867188 25.503906 29.867188 C 26.457031 29.867188 27.40625 29.867188 28.355469 29.867188 C 28.628906 29.867188 28.664062 29.917969 28.589844 30.191406 C 28.542969 30.367188 28.476562 30.546875 28.472656 30.726562 C 28.46875 30.96875 28.347656 31.011719 28.148438 31.007812 C 27.058594 31.003906 25.96875 31.007812 24.855469 31.007812 C 24.238281 34.113281 23.621094 37.21875 22.992188 40.394531 C 22.628906 40.394531 22.253906 40.386719 21.882812 40.394531 C 21.722656 40.398438 21.652344 40.339844 21.675781 40.183594 C 21.710938 39.917969 21.738281 39.648438 21.789062 39.382812 C 21.882812 38.882812 21.984375 38.386719 22.089844 37.886719 C 22.199219 37.355469 22.320312 36.828125 22.425781 36.292969 C 22.578125 35.53125 22.71875 34.765625 22.867188 34.003906 C 22.882812 33.929688 22.902344 33.859375 22.917969 33.761719 Z M 22.917969 33.761719 "/>
<path style=" stroke:none;fill-rule:nonzero;fill:rgb(100%,100%,100%);fill-opacity:1;" d="M 25.511719 16.023438 C 25.511719 15.347656 25.503906 14.699219 25.515625 14.054688 C 25.519531 13.949219 25.578125 13.832031 25.640625 13.742188 C 26 13.230469 26.480469 13.054688 27.117188 13.101562 C 27.945312 13.167969 28.777344 13.113281 29.605469 13.125 C 29.710938 13.125 29.824219 13.1875 29.914062 13.25 C 30.035156 13.328125 30.136719 13.433594 30.246094 13.523438 C 30.476562 13.71875 30.613281 13.925781 30.601562 14.265625 C 30.570312 15.183594 30.59375 16.109375 30.59375 17.046875 C 28.898438 17.046875 27.21875 17.046875 25.511719 17.046875 C 25.511719 16.714844 25.511719 16.382812 25.511719 16.023438 M 28.15625 14.933594 C 28.738281 14.628906 28.863281 14.324219 28.566406 13.847656 C 28.332031 13.46875 27.796875 13.503906 27.535156 13.8125 C 27.355469 14.027344 27.300781 14.296875 27.449219 14.5625 C 27.59375 14.820312 27.832031 14.917969 28.15625 14.933594 Z M 28.15625 14.933594 "/>
<path style=" stroke:none;fill-rule:nonzero;fill:rgb(0%,0%,0%);fill-opacity:1;" d="M 28.136719 14.933594 C 27.832031 14.917969 27.59375 14.820312 27.449219 14.5625 C 27.300781 14.296875 27.355469 14.027344 27.535156 13.8125 C 27.796875 13.503906 28.332031 13.46875 28.566406 13.847656 C 28.863281 14.324219 28.738281 14.628906 28.136719 14.933594 Z M 28.136719 14.933594 "/>
</g>
</svg>
